<?xml version="1.0" encoding="UTF-8" standalone="no"?>
<!DOCTYPE svg PUBLIC "-//W3C//DTD SVG 1.1//EN" "http://www.w3.org/Graphics/SVG/1.1/DTD/svg11.dtd">
<svg version="1.1" xmlns="http://www.w3.org/2000/svg" xmlns:xlink="http://www.w3.org/1999/xlink" preserveAspectRatio="xMidYMid meet" viewBox="0 0 589 462" width="589" height="462"><defs><path d="M568.07 443.32L19.42 443.32" id="dVaRNPhUO"></path><path d="M19.42 19L19.42 443.32" id="b1N3imSUc4"></path><path d="M22.9 15.27L25.69 20.86L20.11 20.86L14.52 20.86C14.52 20.86 14.52 20.86 14.52 20.86C14.52 20.86 20.11 9.68 20.11 9.68C20.11 9.68 20.11 9.68 20.11 9.68L22.9 15.27Z" id="bQtLNGZI3"></path><path d="M572.44 445.79L566.86 448.59L566.86 443L566.86 437.41C566.86 437.41 566.86 437.41 566.86 437.41C566.86 437.41 578.03 443 578.03 443C578.03 443 578.03 443 578.03 443L572.44 445.79Z" id="d1fHPtj0ui"></path><path d="M156 435.58C114.84 430.97 84.84 419.14 66 400.08C47.16 381.03 33.82 351.03 26 310.08" id="b4kC0BBo8o"></path><path d="M574.02 336.66C411.93 328.54 300.83 303.65 240.72 262.01C180.61 220.37 140.78 139.36 121.23 19" id="c6w6D9njFS"></path><path d="M19.4 311.62L19.4 442.84L156 442.84L156 436.09C137.27 433.69 120.6 429.66 106 424C87.79 416.95 71.37 406.02 62.62 396.81C46.86 380.22 34.66 351.68 26 311.2L19.4 311.62Z" id="a1iUJ2JH4A"></path><path d="M576 19L576 336.21C492.69 331.02 424.51 322.83 371.47 311.65C295.13 295.56 253.14 271.51 226 250.87C179.99 215.89 145.02 138.6 121.09 19L576 19Z" id="d3phwGiDK"></path><path d="M326 171.01L46 413.48" id="c2DZnCpcMX"></path><path d="M329.18 170.24C329.18 171.62 328.06 172.74 326.68 172.74C325.3 172.74 324.18 171.62 324.18 170.24C324.18 168.87 325.3 167.74 326.68 167.74C328.06 167.74 329.18 168.87 329.18 170.24Z" id="a1XHxpgaRW"></path><path d="M47.6 414C47.6 415.38 46.48 416.5 45.1 416.5C43.72 416.5 42.6 415.38 42.6 414C42.6 412.62 43.72 411.5 45.1 411.5C46.48 411.5 47.6 412.62 47.6 414Z" id="i3KJdNaVwL"></path><path d="M156 320.2C156 321.58 154.88 322.7 153.5 322.7C152.12 322.7 151 321.58 151 320.2C151 318.82 152.12 317.7 153.5 317.7C154.88 317.7 156 318.82 156 320.2Z" id="c3fzItLrHv"></path></defs><g><g><g><g><use xlink:href="#dVaRNPhUO" opacity="1" fill-opacity="0" stroke="#000000" stroke-width="1" stroke-opacity="1"></use></g></g><g><g><use xlink:href="#b1N3imSUc4" opacity="1" fill-opacity="0" stroke="#000000" stroke-width="1" stroke-opacity="1"></use></g></g><g><use xlink:href="#bQtLNGZI3" opacity="1" fill="#000000" fill-opacity="1"></use></g><g><use xlink:href="#d1fHPtj0ui" opacity="1" fill="#000000" fill-opacity="1"></use></g><g><g><use xlink:href="#b4kC0BBo8o" opacity="1" fill-opacity="0" stroke="#000000" stroke-width="1" stroke-opacity="1"></use></g></g><g><g><use xlink:href="#c6w6D9njFS" opacity="1" fill-opacity="0" stroke="#000000" stroke-width="1" stroke-opacity="1"></use></g></g><g><use xlink:href="#a1iUJ2JH4A" opacity="1" fill="#000000" fill-opacity="0.1"></use></g><g><use xlink:href="#d3phwGiDK" opacity="1" fill="#000000" fill-opacity="0.1"></use></g><g><g><use xlink:href="#c2DZnCpcMX" opacity="1" fill-opacity="0" stroke="#000000" stroke-width="1" stroke-opacity="1"></use></g></g><g><use xlink:href="#a1XHxpgaRW" opacity="1" fill="#000000" fill-opacity="1"></use></g><g><use xlink:href="#i3KJdNaVwL" opacity="1" fill="#000000" fill-opacity="1"></use></g><g><use xlink:href="#c3fzItLrHv" opacity="1" fill="#000000" fill-opacity="1"></use></g></g></g></svg>